<svg width="1142" height="176" viewBox="0 0 1142 176" fill="none" xmlns="http://www.w3.org/2000/svg">
<path id="BLOCKCHAIN" d="M62.6772 150.55V137.953H75.171V112.861H62.6772V100.367H24.9876V150.55H62.6772ZM62.6772 75.2753V62.6774H75.171V37.5857H62.6772V25.0919H24.9876V75.2753H62.6772ZM0 175.538V0.000205368H75.171V12.494H87.7689V25.0919H100.263V75.2753H87.7689V100.367H100.263V150.55H87.7689V163.044H75.171V175.538H0ZM112.861 175.538V0.000205368H137.848V150.55H213.123V175.538H112.861ZM300.892 150.55V137.953H313.49V37.5857H300.892V25.0919H263.307V37.5857H250.709V137.953H263.307V150.55H300.892ZM250.709 175.538V163.044H238.215V150.55H225.721V25.0919H238.215V12.494H250.709V0.000205368H313.49V12.494H325.984V25.0919H338.582V150.55H325.984V163.044H313.49V175.538H250.709ZM376.063 175.538V163.044H363.57V150.55H351.076V25.0919H363.57V12.494H376.063V0.000205368H426.247V12.494H438.845V25.0919H451.339V50.1836H426.247V37.5857H413.753V25.0919H388.661V37.5857H376.063V137.953H388.661V150.55H413.753V137.953H426.247V125.459H451.339V150.55H438.845V163.044H426.247V175.538H376.063ZM463.936 175.538V0.000205368H488.924V62.6774H501.522V50.1836H514.016V37.5857H526.614V25.0919H539.107V12.494H551.705V0.000205368H576.797V25.0919H564.199V37.5857H551.705V50.1836H539.107V62.6774H526.614V75.2753H514.016V100.367H526.614V112.861H539.107V125.459H551.705V137.953H564.199V150.55H576.797V175.538H551.705V163.044H539.107V150.55H526.614V137.953H514.016V125.459H501.522V112.861H488.924V175.538H463.936ZM614.278 175.538V163.044H601.785V150.55H589.291V25.0919H601.785V12.494H614.278V0.000205368H664.462V12.494H677.06V25.0919H689.554V50.1836H664.462V37.5857H651.968V25.0919H626.876V37.5857H614.278V137.953H626.876V150.55H651.968V137.953H664.462V125.459H689.554V150.55H677.06V163.044H664.462V175.538H614.278ZM702.152 175.538V0.000205368H727.139V75.2753H777.323V0.000205368H802.414V175.538H777.323V100.367H727.139V175.538H702.152ZM890.183 87.7691V50.1836H877.689V37.5857H852.598V50.1836H840V87.7691H890.183ZM815.012 175.538V37.5857H827.506V25.0919H840V12.494H852.598V0.000205368H877.689V12.494H890.183V25.0919H902.781V37.5857H915.275V175.538H890.183V112.861H840V175.538H815.012ZM927.873 175.538V150.55H952.86V25.0919H927.873V0.000205368H1003.04V25.0919H977.952V150.55H1003.04V175.538H927.873ZM1015.75 175.538V0.000205368H1040.73V37.5857H1053.33V50.1836H1065.83V62.6774H1078.42V75.2753H1090.92V87.7691H1103.51V100.367H1116.01V0.000205368H1141.1V175.538H1116.01V137.953H1103.51V125.459H1090.92V112.861H1078.42V100.367H1065.83V87.7691H1053.33V75.2753H1040.73V175.538H1015.75Z" fill="white"/>
</svg>
