<svg width="579" height="575" viewBox="0 0 579 575" fill="none" xmlns="http://www.w3.org/2000/svg">
<g id="logo">
<g id="Group 100">
<path id="Ellipse 79" d="M289.319 7.27832C445.13 7.27832 571.361 132.781 571.361 287.5C571.361 442.219 445.13 567.722 289.319 567.722C133.509 567.721 7.27832 442.219 7.27832 287.5C7.27832 132.781 133.509 7.27852 289.319 7.27832Z" stroke="white" stroke-width="14.557"/>
<g id="Group 98">
<g id="Clip path group">
<mask id="mask0_0_1" style="mask-type:luminance" maskUnits="userSpaceOnUse" x="440" y="110" width="39" height="39">
<g id="clippath-30">
<path id="Vector" d="M450.443 113.17C459.72 108.215 471.357 111.548 476.432 120.6C481.505 129.649 478.095 141.004 468.819 145.958C459.542 150.913 447.905 147.579 442.831 138.527C437.758 129.478 441.168 118.124 450.443 113.17Z" fill="white" stroke="white" stroke-width="0.272774"/>
</g>
</mask>
<g mask="url(#mask0_0_1)">
<g id="Group">
<g id="Clip path group_2">
<mask id="mask1_0_1" style="mask-type:luminance" maskUnits="userSpaceOnUse" x="-313" y="-460" width="1644" height="903">
<g id="clippath-31">
<path id="Vector_2" d="M1330.43 -459.186V442.483H-312.112V-459.186H1330.43Z" fill="white" stroke="white" stroke-width="0.272774"/>
</g>
</mask>
<g mask="url(#mask1_0_1)">
<g id="Group_2">
<g id="Rectangle">
<rect x="-312.249" y="-459.322" width="1644.25" height="902.6" fill="white"/>
<rect x="-312.249" y="-459.322" width="1644.25" height="902.6" stroke="white"/>
</g>
</g>
</g>
</g>
</g>
</g>
</g>
<g id="Clip path group_3">
<mask id="mask2_0_1" style="mask-type:luminance" maskUnits="userSpaceOnUse" x="193" y="47" width="280" height="139">
<g id="clippath-12">
<path id="Vector_3" d="M309.51 47.8555H309.511H309.77C309.942 47.8567 310.2 47.8599 310.539 47.8672C311.217 47.8818 312.223 47.9134 313.527 47.9814C316.137 48.1175 319.947 48.3999 324.745 48.9824C334.341 50.1476 347.889 52.5156 363.69 57.3291C395.262 66.9464 435.83 86.3237 471.865 125.361L456.695 135.226C456.67 135.197 456.639 135.162 456.602 135.12C456.487 134.993 456.315 134.803 456.087 134.557C455.63 134.063 454.947 133.339 454.042 132.417C452.231 130.573 449.53 127.935 445.968 124.762C438.843 118.415 428.271 109.922 414.482 101.336C386.929 84.1792 346.527 66.6479 295.104 65.125V65.1211H294.957L294.955 65.2578H294.83V131.157L200.06 185.318L193.312 167.208L276.202 121.33L276.272 121.291V47.8555H309.51Z" fill="white" stroke="white" stroke-width="0.272774"/>
</g>
</mask>
<g mask="url(#mask2_0_1)">
<g id="Group_3">
<g id="Clip path group_4">
<mask id="mask3_0_1" style="mask-type:luminance" maskUnits="userSpaceOnUse" x="-531" y="-161" width="1644" height="903">
<g id="clippath-13">
<path id="Vector_4" d="M1111.97 -160.094V741.575H-530.57V-160.094H1111.97Z" fill="white" stroke="white" stroke-width="0.272774"/>
</g>
</mask>
<g mask="url(#mask3_0_1)">
<g id="Group_4">
<g id="Rectangle_2">
<rect x="-530.707" y="-160.23" width="1644.25" height="902.6" fill="white"/>
<rect x="-530.707" y="-160.23" width="1644.25" height="902.6" stroke="white"/>
</g>
</g>
</g>
</g>
</g>
</g>
</g>
<g id="Clip path group_5">
<mask id="mask4_0_1" style="mask-type:luminance" maskUnits="userSpaceOnUse" x="325" y="137" width="215" height="244">
<g id="clippath-18">
<path id="Vector_5" d="M431.8 197.324L431.868 197.362L431.936 197.324L498.57 158.968C518.556 183.389 528.8 215.887 534.046 242.304C536.672 255.526 538.044 267.221 538.761 275.61C539.119 279.805 539.313 283.172 539.418 285.491C539.47 286.651 539.5 287.548 539.517 288.155C539.525 288.459 539.53 288.69 539.533 288.845C539.535 288.922 539.536 288.981 539.537 289.021V289.076C539.24 317.139 534.323 339.884 529.479 355.611C527.058 363.475 524.654 369.585 522.857 373.728C521.959 375.799 521.212 377.378 520.689 378.439C520.428 378.97 520.223 379.371 520.084 379.64C520.021 379.76 519.971 379.853 519.936 379.92L503.912 370.866C511.46 355.114 515.512 334.277 517.678 317.372C518.764 308.897 519.376 301.406 519.717 296.034C519.887 293.348 519.99 291.192 520.05 289.707C520.08 288.965 520.099 288.39 520.111 288.001C520.117 287.806 520.12 287.658 520.123 287.559C520.124 287.509 520.125 287.471 520.126 287.445C520.126 287.433 520.127 287.423 520.127 287.417V287.408C520.126 287.408 520.113 287.407 519.991 287.404L520.127 287.407V287.4C518.972 254.568 512.124 228.455 505.563 210.55C502.283 201.597 499.074 194.696 496.686 190.032C495.491 187.7 494.502 185.927 493.811 184.737C493.465 184.142 493.194 183.692 493.009 183.392C492.917 183.241 492.846 183.128 492.798 183.053C492.774 183.015 492.756 182.986 492.744 182.967C492.738 182.957 492.734 182.95 492.73 182.945C492.729 182.943 492.727 182.941 492.727 182.939L492.726 182.938C492.725 182.938 492.725 182.938 492.61 183.012L492.726 182.938L492.655 182.83L492.543 182.894L431.006 217.933L325.901 157.881V137.311L431.8 197.324Z" fill="white" stroke="white" stroke-width="0.272774"/>
</g>
</mask>
<g mask="url(#mask4_0_1)">
<g id="Group_5">
<g id="Clip path group_6">
<mask id="mask5_0_1" style="mask-type:luminance" maskUnits="userSpaceOnUse" x="-531" y="-161" width="1644" height="903">
<g id="clippath-19">
<path id="Vector_6" d="M1111.94 -160.07V741.599H-530.6V-160.07H1111.94Z" fill="white" stroke="white" stroke-width="0.272774"/>
</g>
</mask>
<g mask="url(#mask5_0_1)">
<g id="Group_6">
<g id="Rectangle_3">
<rect x="-530.736" y="-160.207" width="1644.25" height="902.6" fill="white"/>
<rect x="-530.736" y="-160.207" width="1644.25" height="902.6" stroke="white"/>
</g>
</g>
</g>
</g>
</g>
</g>
</g>
<g id="Clip path group_7">
<mask id="mask6_0_1" style="mask-type:luminance" maskUnits="userSpaceOnUse" x="340" y="273" width="170" height="255">
<g id="clippath-20">
<path id="Vector_7" d="M447.117 273.328V367.636L447.185 367.675L509.753 404.497L492.489 430.115L492.487 430.119L492.603 430.191C492.487 430.119 492.487 430.12 492.486 430.12L492.485 430.122C492.484 430.124 492.481 430.128 492.479 430.133C492.473 430.142 492.464 430.155 492.453 430.173C492.43 430.209 492.395 430.263 492.349 430.335C492.256 430.478 492.117 430.692 491.932 430.972C491.56 431.531 491.001 432.353 490.253 433.408C488.756 435.518 486.502 438.558 483.471 442.271C477.409 449.697 468.242 459.819 455.823 470.602C431.011 492.145 393.222 516.32 341.289 526.895L340.45 508.807C340.486 508.801 340.531 508.794 340.583 508.785C340.75 508.758 340.999 508.716 341.326 508.657C341.98 508.54 342.946 508.357 344.194 508.094C346.691 507.568 350.319 506.724 354.847 505.445C363.901 502.889 376.554 498.599 390.945 491.666C419.729 477.799 455.474 453.356 483.316 411.055L483.206 410.964L483.261 410.871L428.568 379.178V273.328H447.117Z" fill="white" stroke="white" stroke-width="0.272774"/>
</g>
</mask>
<g mask="url(#mask6_0_1)">
<g id="Group_7">
<g id="Clip path group_8">
<mask id="mask7_0_1" style="mask-type:luminance" maskUnits="userSpaceOnUse" x="-531" y="-161" width="1644" height="903">
<g id="clippath-21">
<path id="Vector_8" d="M1111.94 -160.107V741.562H-530.6V-160.107H1111.94Z" fill="white" stroke="white" stroke-width="0.272774"/>
</g>
</mask>
<g mask="url(#mask7_0_1)">
<g id="Group_8">
<g id="Rectangle_4">
<rect x="-530.736" y="-160.244" width="1644.25" height="902.6" fill="white"/>
<rect x="-530.736" y="-160.244" width="1644.25" height="902.6" stroke="white"/>
</g>
</g>
</g>
</g>
</g>
</g>
</g>
<g id="Clip path group_9">
<mask id="mask8_0_1" style="mask-type:luminance" maskUnits="userSpaceOnUse" x="417" y="241" width="40" height="38">
<g id="clippath-22">
<path id="Vector_9" d="M420.879 250.112C426.396 241.31 438.19 238.544 447.201 243.94H447.202C456.221 249.326 459.051 260.834 453.525 269.634C448.008 278.436 436.214 281.202 427.203 275.806C418.184 270.42 415.353 258.912 420.879 250.112Z" fill="white" stroke="white" stroke-width="0.272774"/>
</g>
</mask>
<g mask="url(#mask8_0_1)">
<g id="Group_9">
<g id="Clip path group_10">
<mask id="mask9_0_1" style="mask-type:luminance" maskUnits="userSpaceOnUse" x="-531" y="-161" width="1644" height="903">
<g id="clippath-23">
<path id="Vector_10" d="M1111.94 -160.069V741.6H-530.6V-160.069H1111.94Z" fill="white" stroke="white" stroke-width="0.272774"/>
</g>
</mask>
<g mask="url(#mask9_0_1)">
<g id="Group_10">
<g id="Rectangle_5">
<rect x="-530.736" y="-160.206" width="1644.25" height="902.6" fill="white"/>
<rect x="-530.736" y="-160.206" width="1644.25" height="902.6" stroke="white"/>
</g>
</g>
</g>
</g>
</g>
</g>
</g>
<g id="Clip path group_11">
<mask id="mask10_0_1" style="mask-type:luminance" maskUnits="userSpaceOnUse" x="164" y="162" width="40" height="39">
<g id="clippath-22_2">
<path id="Vector_11" d="M167.607 171.459C173.125 162.657 184.918 159.891 193.93 165.287H193.931C202.95 170.673 205.78 182.18 200.254 190.98C194.737 199.782 182.943 202.549 173.932 197.152C164.912 191.767 162.082 180.259 167.607 171.459Z" fill="white" stroke="white" stroke-width="0.272774"/>
</g>
</mask>
<g mask="url(#mask10_0_1)">
<g id="Group_11">
<g id="Clip path group_12">
<mask id="mask11_0_1" style="mask-type:luminance" maskUnits="userSpaceOnUse" x="-785" y="-239" width="1644" height="903">
<g id="clippath-23_2">
<path id="Vector_12" d="M858.655 -238.732V662.937H-783.886V-238.732H858.655Z" fill="white" stroke="white" stroke-width="0.272774"/>
</g>
</mask>
<g mask="url(#mask11_0_1)">
<g id="Group_12">
<g id="Rectangle_6">
<rect x="-784.022" y="-238.869" width="1644.25" height="902.6" fill="white"/>
<rect x="-784.022" y="-238.869" width="1644.25" height="902.6" stroke="white"/>
</g>
</g>
</g>
</g>
</g>
</g>
</g>
<g id="Clip path group_13">
<mask id="mask12_0_1" style="mask-type:luminance" maskUnits="userSpaceOnUse" x="209" y="400" width="40" height="38">
<g id="clippath-22_3">
<path id="Vector_13" d="M212.842 409.099C218.359 400.297 230.153 397.531 239.164 402.927H239.165C248.184 408.312 251.014 419.82 245.488 428.62C239.971 437.422 228.177 440.188 219.166 434.792C210.147 429.406 207.316 417.899 212.842 409.099Z" fill="white" stroke="white" stroke-width="0.272774"/>
</g>
</mask>
<g mask="url(#mask12_0_1)">
<g id="Group_13">
<g id="Clip path group_14">
<mask id="mask13_0_1" style="mask-type:luminance" maskUnits="userSpaceOnUse" x="-739" y="-2" width="1644" height="903">
<g id="clippath-23_3">
<path id="Vector_14" d="M903.904 -1.0791V900.59H-738.637V-1.0791H903.904Z" fill="white" stroke="white" stroke-width="0.272774"/>
</g>
</mask>
<g mask="url(#mask13_0_1)">
<g id="Group_14">
<g id="Rectangle_7">
<rect x="-738.773" y="-1.21582" width="1644.25" height="902.6" fill="white"/>
<rect x="-738.773" y="-1.21582" width="1644.25" height="902.6" stroke="white"/>
</g>
</g>
</g>
</g>
</g>
</g>
</g>
<g id="Clip path group_15">
<mask id="mask14_0_1" style="mask-type:luminance" maskUnits="userSpaceOnUse" x="41" y="207" width="39" height="39">
<g id="clippath-22_4">
<path id="Vector_15" d="M44.0488 216.979C49.5659 208.177 61.3598 205.41 70.3711 210.807H70.3721C79.391 216.192 82.2209 227.7 76.6953 236.5C71.1782 245.302 59.3843 248.068 50.373 242.672C41.3538 237.286 38.5231 225.779 44.0488 216.979Z" fill="white" stroke="white" stroke-width="0.272774"/>
</g>
</mask>
<g mask="url(#mask14_0_1)">
<g id="Group_15">
<g id="Clip path group_16">
<mask id="mask15_0_1" style="mask-type:luminance" maskUnits="userSpaceOnUse" x="-908" y="-194" width="1644" height="903">
<g id="clippath-23_4">
<path id="Vector_16" d="M735.104 -193.191V708.478H-907.438V-193.191H735.104Z" fill="white" stroke="white" stroke-width="0.272774"/>
</g>
</mask>
<g mask="url(#mask15_0_1)">
<g id="Group_16">
<g id="Rectangle_8">
<rect x="-907.574" y="-193.328" width="1644.25" height="902.6" fill="white"/>
<rect x="-907.574" y="-193.328" width="1644.25" height="902.6" stroke="white"/>
</g>
</g>
</g>
</g>
</g>
</g>
</g>
<g id="Clip path group_17">
<mask id="mask16_0_1" style="mask-type:luminance" maskUnits="userSpaceOnUse" x="311" y="502" width="40" height="39">
<g id="clippath-22_5">
<path id="Vector_17" d="M314.492 511.46C320.009 502.658 331.803 499.892 340.814 505.288H340.815C349.834 510.674 352.664 522.181 347.139 530.981C341.622 539.783 329.828 542.55 320.816 537.153C311.797 531.768 308.966 520.26 314.492 511.46Z" fill="white" stroke="white" stroke-width="0.272774"/>
</g>
</mask>
<g mask="url(#mask16_0_1)">
<g id="Group_17">
<g id="Clip path group_18">
<mask id="mask17_0_1" style="mask-type:luminance" maskUnits="userSpaceOnUse" x="-638" y="101" width="1644" height="903">
<g id="clippath-23_5">
<path id="Vector_18" d="M1005.57 101.284V1002.95H-636.975V101.284H1005.57Z" fill="white" stroke="white" stroke-width="0.272774"/>
</g>
</mask>
<g mask="url(#mask17_0_1)">
<g id="Group_18">
<g id="Rectangle_9">
<rect x="-637.111" y="101.147" width="1644.25" height="902.6" fill="white"/>
<rect x="-637.111" y="101.147" width="1644.25" height="902.6" stroke="white"/>
</g>
</g>
</g>
</g>
</g>
</g>
</g>
<g id="Clip path group_19">
<mask id="mask18_0_1" style="mask-type:luminance" maskUnits="userSpaceOnUse" x="94" y="390" width="308" height="143">
<g id="clippath-26">
<path id="Vector_19" d="M401.622 400.143L297.46 460.143L297.392 460.182V531.128C265.675 535.429 232.275 527.538 206.786 518.558C194.027 514.062 183.254 509.296 175.671 505.653C171.879 503.832 168.885 502.292 166.839 501.207C165.816 500.665 165.031 500.236 164.501 499.943C164.236 499.797 164.034 499.684 163.899 499.608C163.832 499.571 163.782 499.542 163.748 499.522C163.731 499.513 163.718 499.506 163.71 499.501C163.706 499.499 163.702 499.496 163.7 499.495L163.698 499.494H163.697C139.127 484.916 121.915 470.075 110.847 458.88C105.312 453.283 101.315 448.596 98.7002 445.311C97.3931 443.668 96.4319 442.375 95.7979 441.493C95.4809 441.052 95.2447 440.715 95.0889 440.487C95.0206 440.388 94.9677 440.309 94.9297 440.252L110.113 429.549C120.133 443.924 136.35 457.537 150.068 467.562C156.946 472.588 163.199 476.714 167.732 479.583C169.999 481.018 171.836 482.139 173.106 482.901C173.741 483.282 174.235 483.573 174.57 483.77C174.738 483.868 174.866 483.942 174.952 483.992C174.995 484.017 175.027 484.035 175.049 484.048C175.06 484.054 175.068 484.059 175.073 484.062C175.076 484.064 175.079 484.065 175.08 484.065L175.081 484.066L175.082 484.067L175.085 484.069C204.593 499.87 230.496 507.524 249.022 511.229C258.286 513.081 265.706 513.945 270.811 514.347C273.363 514.547 275.337 514.632 276.673 514.667C277.341 514.684 277.849 514.689 278.191 514.689C278.362 514.69 278.491 514.689 278.578 514.688C278.621 514.688 278.655 514.688 278.677 514.688C278.688 514.687 278.696 514.687 278.701 514.687H278.709H278.71L278.842 514.684L278.843 514.552L279.693 449.49L383.088 390.27L401.622 400.143Z" fill="white" stroke="white" stroke-width="0.272774"/>
</g>
</mask>
<g mask="url(#mask18_0_1)">
<g id="Group_19">
<g id="Clip path group_20">
<mask id="mask19_0_1" style="mask-type:luminance" maskUnits="userSpaceOnUse" x="-531" y="-161" width="1644" height="903">
<g id="clippath-27">
<path id="Vector_20" d="M1111.94 -160.095V741.574H-530.6V-160.095H1111.94Z" fill="white" stroke="white" stroke-width="0.272774"/>
</g>
</mask>
<g mask="url(#mask19_0_1)">
<g id="Group_20">
<g id="Rectangle_10">
<rect x="-530.736" y="-160.231" width="1644.25" height="902.6" fill="white"/>
<rect x="-530.736" y="-160.231" width="1644.25" height="902.6" stroke="white"/>
</g>
</g>
</g>
</g>
</g>
</g>
</g>
<g id="Clip path group_21">
<mask id="mask20_0_1" style="mask-type:luminance" maskUnits="userSpaceOnUse" x="41" y="215" width="194" height="217">
<g id="clippath-28">
<path id="Vector_21" d="M70.6143 223.127C70.602 223.159 70.5872 223.198 70.5703 223.242C70.5109 223.399 70.4242 223.633 70.3125 223.941C70.0889 224.559 69.7672 225.476 69.375 226.675C68.5905 229.071 67.5228 232.594 66.3906 237.099C64.1261 246.109 61.6013 259.053 60.5605 274.784C58.4791 306.247 62.333 348.866 86.0723 393.49L86.1387 393.615L86.2607 393.544L140.952 361.851L234.039 415.197L226.461 430.817L141.02 382.449L140.951 382.411L140.884 382.45L79.3936 418.292L63.1904 391.532H63.1914C63.1911 391.532 63.19 391.531 63.1895 391.53C63.1882 391.528 63.1861 391.524 63.1836 391.52L63.0713 391.31C62.9923 391.161 62.8755 390.938 62.7246 390.644C62.4225 390.054 61.9837 389.174 61.4365 388.021C60.3422 385.713 58.8153 382.307 57.0859 377.91C53.6268 369.116 49.3576 356.363 46.1201 340.529C39.6515 308.892 37.3008 264.957 53.7529 215.727L70.6143 223.127Z" fill="white" stroke="white" stroke-width="0.272774"/>
</g>
</mask>
<g mask="url(#mask20_0_1)">
<g id="Group_21">
<g id="Clip path group_22">
<mask id="mask21_0_1" style="mask-type:luminance" maskUnits="userSpaceOnUse" x="-531" y="-161" width="1644" height="903">
<g id="clippath-29">
<path id="Vector_22" d="M1111.95 -160.108V741.561H-530.588V-160.108H1111.95Z" fill="white" stroke="white" stroke-width="0.272774"/>
</g>
</mask>
<g mask="url(#mask21_0_1)">
<g id="Group_22">
<g id="Rectangle_11">
<rect x="-530.725" y="-160.245" width="1644.25" height="902.6" fill="white"/>
<rect x="-530.725" y="-160.245" width="1644.25" height="902.6" stroke="white"/>
</g>
</g>
</g>
</g>
</g>
</g>
</g>
<g id="Clip path group_23">
<mask id="mask22_0_1" style="mask-type:luminance" maskUnits="userSpaceOnUse" x="69" y="50" width="181" height="281">
<g id="clippath-34">
<path id="Vector_23" d="M133.393 216.375L133.324 216.335L69.2607 178.815C83.3423 148.546 107.304 123.538 127.763 106.088C138.003 97.3531 147.364 90.5136 154.164 85.8584C157.564 83.5308 160.325 81.7493 162.234 80.5498C163.189 79.9502 163.931 79.4966 164.435 79.1924C164.686 79.0404 164.878 78.9252 165.007 78.8486C165.071 78.8104 165.121 78.7819 165.153 78.7627C165.169 78.7533 165.181 78.746 165.189 78.7412C165.194 78.7388 165.197 78.7365 165.199 78.7354L165.2 78.7334C190.384 65.1896 211.494 58.1055 226.307 54.4062C233.713 52.5566 239.545 51.5534 243.524 51.0127C245.514 50.7424 247.041 50.5881 248.069 50.501C248.583 50.4574 248.973 50.4308 249.234 50.415C249.338 50.4088 249.422 50.4036 249.484 50.4004V68.5107C231.567 71.2566 212.529 78.1273 197.964 84.3145C190.665 87.4151 184.487 90.3452 180.134 92.5C177.957 93.5774 176.236 94.4608 175.06 95.0752C174.471 95.3823 174.019 95.622 173.714 95.7852C173.561 95.8666 173.446 95.9297 173.368 95.9717C173.329 95.9926 173.3 96.0089 173.28 96.0195C173.271 96.0248 173.263 96.0286 173.258 96.0312C173.255 96.0326 173.253 96.0335 173.252 96.0342L173.251 96.0352C173.251 96.0353 173.25 96.0355 173.315 96.1553L173.25 96.0352L173.246 96.0381C144.519 113.156 124.866 132.38 112.395 147.327C106.159 154.8 101.719 161.205 98.8369 165.741C97.396 168.009 96.3437 169.811 95.6523 171.046C95.3068 171.663 95.0512 172.139 94.8818 172.461C94.7972 172.622 94.7344 172.744 94.6924 172.826C94.6714 172.867 94.655 172.898 94.6445 172.919L94.6289 172.95C94.6289 172.951 94.6334 172.953 94.751 173.012L94.6289 172.951L94.5713 173.067L94.6846 173.131L150.227 203.991V320.744L133.393 329.778V216.375Z" fill="white" stroke="white" stroke-width="0.272774"/>
</g>
</mask>
<g mask="url(#mask22_0_1)">
<g id="Clip path group_24">
<path id="Vector_24" d="M4783.21 -822.951V2982.77H-2116.02V-822.951H4783.21Z" fill="white" stroke="white"/>
<g id="Rectangle_12">
<rect x="-2055.52" y="-838.451" width="4278" height="3473" fill="white"/>
<rect x="-2055.52" y="-838.451" width="4278" height="3473" stroke="white"/>
</g>
</g>
</g>
</g>
<g id="Group 10">
<g id="Clip path group_25">
<mask id="mask23_0_1" style="mask-type:luminance" maskUnits="userSpaceOnUse" x="270" y="183" width="50" height="91">
<g id="clippath-2">
<path id="Vector_25" d="M319.788 273.031L303.34 273.74L290.286 233.342L290.159 232.948L290.027 233.341L287.145 241.93H270.708L290.155 183.913L319.788 273.031Z" fill="white" stroke="white" stroke-width="0.272774"/>
</g>
</mask>
<g mask="url(#mask23_0_1)">
<g id="Group_23">
<g id="Clip path group_26">
<mask id="mask24_0_1" style="mask-type:luminance" maskUnits="userSpaceOnUse" x="-407" y="-96" width="1397" height="782">
<g id="clippath-3">
<path id="Vector_26" d="M989.76 -95.5137V685.232H-406.51V-95.5137H989.76Z" fill="white" stroke="white" stroke-width="0.272774"/>
</g>
</mask>
<g mask="url(#mask24_0_1)">
<g id="Group_24">
<rect id="Rectangle_13" x="-405.885" y="-94.8894" width="1396.24" height="780.066" fill="white" stroke="white" stroke-width="1.52208"/>
</g>
</g>
</g>
</g>
</g>
</g>
<g id="Clip path group_27">
<mask id="mask25_0_1" style="mask-type:luminance" maskUnits="userSpaceOnUse" x="309" y="257" width="83" height="57">
<g id="clippath-4">
<path id="Vector_27" d="M315.747 313.777L309.861 298.494L344.262 273.381L344.6 273.134L344.181 273.135L335.074 273.142L329.87 257.642L391.371 257.601L315.747 313.777Z" fill="white" stroke="white" stroke-width="0.272774"/>
</g>
</mask>
<g mask="url(#mask25_0_1)">
<g id="Group_25">
<g id="Clip path group_28">
<mask id="mask26_0_1" style="mask-type:luminance" maskUnits="userSpaceOnUse" x="-407" y="-96" width="1397" height="782">
<g id="clippath-5">
<path id="Vector_28" d="M989.76 -95.5146V685.231H-406.51V-95.5146H989.76Z" fill="white" stroke="white" stroke-width="0.272774"/>
</g>
</mask>
<g mask="url(#mask26_0_1)">
<g id="Group_26">
<rect id="Rectangle_14" x="-405.885" y="-94.8903" width="1396.24" height="780.066" fill="white" stroke="white" stroke-width="1.52208"/>
</g>
</g>
</g>
</g>
</g>
</g>
<g id="Clip path group_29">
<mask id="mask27_0_1" style="mask-type:luminance" maskUnits="userSpaceOnUse" x="188" y="257" width="96" height="38">
<g id="clippath-6">
<path id="Vector_29" d="M278.582 273.716L235.899 273.415L235.481 273.412L235.817 273.661L243.123 279.068L237.983 294.596L188.64 258.089L283.044 257.965L278.582 273.716Z" fill="white" stroke="white" stroke-width="0.272774"/>
</g>
</mask>
<g mask="url(#mask27_0_1)">
<g id="Group_27">
<g id="Clip path group_30">
<mask id="mask28_0_1" style="mask-type:luminance" maskUnits="userSpaceOnUse" x="-407" y="-96" width="1397" height="782">
<g id="clippath-7">
<path id="Vector_30" d="M989.76 -95.5156V685.23H-406.51V-95.5156H989.76Z" fill="white" stroke="white" stroke-width="0.272774"/>
</g>
</mask>
<g mask="url(#mask28_0_1)">
<g id="Group_28">
<rect id="Rectangle_15" x="-405.885" y="-94.8913" width="1396.24" height="780.066" fill="white" stroke="white" stroke-width="1.52208"/>
</g>
</g>
</g>
</g>
</g>
</g>
<g id="Clip path group_31">
<mask id="mask29_0_1" style="mask-type:luminance" maskUnits="userSpaceOnUse" x="276" y="311" width="79" height="66">
<g id="clippath-8">
<path id="Vector_31" d="M324.025 336.479L324.365 336.718L324.233 336.323L321.351 327.743L334.501 317.927L353.974 375.933L276.456 322.351L289.179 311.965L324.025 336.479Z" fill="white" stroke="white" stroke-width="0.272774"/>
</g>
</mask>
<g mask="url(#mask29_0_1)">
<g id="Group_29">
<g id="Clip path group_32">
<mask id="mask30_0_1" style="mask-type:luminance" maskUnits="userSpaceOnUse" x="-407" y="-96" width="1397" height="782">
<g id="clippath-9">
<path id="Vector_32" d="M989.76 -95.5068V685.239H-406.51V-95.5068H989.76Z" fill="white" stroke="white" stroke-width="0.272774"/>
</g>
</mask>
<g mask="url(#mask30_0_1)">
<g id="Group_30">
<rect id="Rectangle_16" x="-405.885" y="-94.8825" width="1396.24" height="780.066" fill="white" stroke="white" stroke-width="1.52208"/>
</g>
</g>
</g>
</g>
</g>
</g>
<g id="Clip path group_33">
<mask id="mask31_0_1" style="mask-type:luminance" maskUnits="userSpaceOnUse" x="228" y="287" width="50" height="91">
<g id="clippath-10">
<path id="Vector_33" d="M269.039 296.055L256.691 336.679L256.57 337.076L256.903 336.827L264.176 331.385L277.707 340.674L228.546 377.421L255.099 287.347L269.039 296.055Z" fill="white" stroke="white" stroke-width="0.272774"/>
</g>
</mask>
<g mask="url(#mask31_0_1)">
<g id="Group_31">
<g id="Clip path group_34">
<mask id="mask32_0_1" style="mask-type:luminance" maskUnits="userSpaceOnUse" x="-407" y="-96" width="1397" height="782">
<g id="clippath-11">
<path id="Vector_34" d="M989.743 -95.5137V685.232H-406.526V-95.5137H989.743Z" fill="white" stroke="white" stroke-width="0.272774"/>
</g>
</mask>
<g mask="url(#mask32_0_1)">
<g id="Group_32">
<rect id="Rectangle_17" x="-405.902" y="-94.8894" width="1396.24" height="780.066" fill="white" stroke="white" stroke-width="1.52208"/>
</g>
</g>
</g>
</g>
</g>
</g>
</g>
</g>
</g>
</g>
</svg>
