<svg width="339" height="176" viewBox="0 0 339 176" fill="none" xmlns="http://www.w3.org/2000/svg">
<path id="YTU" d="M37.5855 175.538V100.367H24.9876V87.7691H12.4938V75.2753H0V0.000205368H24.9876V62.6774H37.5855V75.2753H62.6772V62.6774H75.171V0.000205368H100.263V75.2753H87.7689V87.7691H75.171V100.367H62.6772V175.538H37.5855ZM150.446 175.538V25.0919H112.861V0.000205368H213.123V25.0919H175.538V175.538H150.446ZM250.709 175.538V163.044H238.215V150.55H225.721V0.000205368H250.709V137.953H263.307V150.55H300.892V137.953H313.49V0.000205368H338.582V150.55H325.984V163.044H313.49V175.538H250.709Z" fill="white"/>
</svg>
